<svg width="334" height="171" viewBox="0 0 334 171" fill="none" xmlns="http://www.w3.org/2000/svg">
<path opacity="0.12" fill-rule="evenodd" clip-rule="evenodd" d="M223.996 83.5628C220.729 47.145 45.4653 -23.1452 12.9281 11.349C-19.609 45.8433 11.6714 110.58 79.8573 127.157C148.043 143.735 227.263 119.981 223.996 83.5628Z" fill="#93E7ED"/>
<path opacity="0.12" fill-rule="evenodd" clip-rule="evenodd" d="M115.668 107.225C118.594 76.2871 275.588 16.5729 304.734 45.8771C333.879 75.1813 326.502 136.819 265.424 150.902C204.346 164.986 112.742 138.164 115.668 107.225Z" fill="#F4B2A7"/>
<path d="M286.629 14.2786L294.413 6.52939C295.722 5.22611 297.846 5.22567 299.156 6.52842C299.156 6.52874 299.156 6.52907 299.157 6.52939L319.879 27.1567C321.137 28.4081 321.843 30.1051 321.843 31.8744V168.497" stroke="#D6D7DF" stroke-width="8"/>
<path d="M332.742 168.08H310.524C309.829 168.08 309.266 168.64 309.266 169.331V169.748C309.266 170.439 309.829 170.999 310.524 170.999H332.742C333.437 170.999 334 170.439 334 169.748V169.331C334 168.64 333.437 168.08 332.742 168.08Z" fill="#D6D7DF"/>
<path fill-rule="evenodd" clip-rule="evenodd" d="M291.311 9.73248C296.714 15.1076 296.714 23.8223 291.311 29.1974L283.011 37.4553L263.446 17.9903L271.746 9.73248C277.149 4.35738 285.908 4.35738 291.311 9.73248Z" fill="#D6D7DF"/>
<path d="M271.633 29.4155C277.036 34.7906 282.279 38.2897 283.343 37.231C284.407 36.1722 280.89 30.9566 275.487 25.5815C270.084 20.2064 264.842 16.7072 263.778 17.766C262.714 18.8247 266.231 24.0404 271.633 29.4155Z" fill="#AFB9C5"/>
<path opacity="0.8" fill-rule="evenodd" clip-rule="evenodd" d="M29.3299 59.1123C30.6845 58.9477 32.1302 59.0058 33.3899 59.5378C36.0686 60.669 36.83 63.8174 36.7933 66.3764C36.7537 69.1307 36.1658 72.1391 38.2706 74.3583C39.2381 75.3786 40.4417 76.1594 41.3917 77.1984C42.4069 78.3087 43.2034 79.5791 43.7932 80.9433C44.8761 83.4492 45.4076 86.396 44.4173 89.0246C43.5454 91.3389 41.3518 93.4278 41.8258 96.0595C42.3202 98.8048 45.1023 100.904 46.8416 102.948C48.8101 105.262 50.6225 108.22 50.9202 111.255C51.2057 114.163 49.9332 117.104 47.9804 119.303C44.0787 123.696 38.2139 125.849 32.3003 125.836C29.7895 125.83 26.9469 125.717 24.7802 124.375C24.1105 123.96 23.7572 123.495 23.3591 122.847C23.0022 122.267 22.5307 121.89 21.9849 121.479C20.7859 120.577 19.92 119.362 19.3674 118.001C17.2216 112.717 18.9366 106.179 21.9404 101.486C22.6521 100.375 23.2348 99.3047 22.8891 97.9795C22.5282 96.5961 21.6414 95.3484 20.857 94.1593C20.0819 92.9841 19.1971 91.8629 18.5913 90.5923C17.9568 89.2612 17.7781 87.8673 17.8902 86.4105C18.1009 83.674 19.2883 81.1488 20.9693 78.948C22.5884 76.8282 24.4896 74.7999 24.4939 72.0224C24.4985 69.0785 22.5204 66.4598 23.3631 63.4668C23.712 62.2275 24.4129 60.9559 25.5424 60.2129C26.6256 59.5003 28.0559 59.2672 29.3299 59.1123Z" fill="#A6D2E3"/>
<path fill-rule="evenodd" clip-rule="evenodd" d="M28.445 63.8182C28.4704 63.4228 28.9418 63.1857 29.3129 63.2889C29.8014 63.4247 29.792 63.8788 29.7791 64.2834C29.7396 65.5268 29.9205 66.7353 30.2209 67.9418C30.8454 70.4503 31.9994 72.7615 32.9137 75.1711C33.8272 77.5787 34.256 80.0644 33.7201 82.612C33.2149 85.014 32.4213 87.3537 31.9042 89.7588C31.4485 91.8785 30.9636 94.1139 31.6576 96.2282C32.3254 98.2634 33.8018 99.9209 34.8649 101.76C37.0657 105.567 38.0421 109.791 38.1727 114.138C38.2332 116.156 38.1787 118.193 37.708 120.173C37.4372 121.313 37.0731 122.853 36.0913 123.64C35.6386 124.003 34.8642 124.128 34.4832 123.591C34.1255 123.087 34.4393 122.307 34.5529 121.769C35.0447 119.444 35.1437 117.067 35.0259 114.705C34.9119 112.418 34.6403 110.134 33.9167 107.95C33.2451 105.922 32.2248 104.101 31.0239 102.328C29.8003 100.521 28.5282 98.7095 28.0226 96.5681C27.5089 94.3931 27.9262 92.18 28.4843 90.0466C29.0744 87.79 29.8474 85.5982 30.6465 83.4027C31.4253 81.2634 31.7013 79.2393 31.2714 77.0003C30.4221 72.5768 28.1488 68.4248 28.445 63.8182Z" fill="#F1F2FB"/>
<path fill-rule="evenodd" clip-rule="evenodd" d="M65.0955 64.4795C66.7717 64.9858 68.4366 65.8028 69.6315 67.0839C72.1723 69.8082 71.3927 73.9256 69.9901 76.9329C68.4803 80.1697 66.1925 83.4233 67.4822 87.1371C68.075 88.8445 69.0718 90.3908 69.6341 92.1113C70.2349 93.9497 70.4942 95.8644 70.4612 97.783C70.4 101.307 69.4578 105.067 66.8998 107.663C64.6476 109.949 60.965 111.284 60.1228 114.642C59.2442 118.144 61.3922 122.066 62.3459 125.385C63.4253 129.14 63.9797 133.576 62.7167 137.319C61.5064 140.906 58.4513 143.726 54.9929 145.315C48.0828 148.491 40.0597 148.002 33.1308 144.926C30.189 143.619 26.9147 142.015 25.0865 139.306C24.5215 138.469 24.3545 137.735 24.2313 136.764C24.121 135.893 23.7685 135.203 23.3465 134.435C22.4193 132.748 22.0494 130.862 22.1241 128.967C22.4148 121.607 27.8997 114.763 33.9159 110.768C35.3414 109.821 36.5933 108.857 36.8918 107.111C37.2035 105.288 36.8263 103.354 36.538 101.542C36.2533 99.7507 35.811 97.9668 35.7755 96.1505C35.7385 94.248 36.2695 92.507 37.175 90.8422C38.8759 87.715 41.6102 85.3431 44.7511 83.6105C47.7764 81.9416 51.0838 80.5269 52.5645 77.2443C54.134 73.7652 53.205 69.6444 55.7836 66.541C56.8513 65.256 58.3489 64.1149 60.0684 63.8208C61.7175 63.5387 63.5189 64.0032 65.0955 64.4795Z" fill="#A6D2E3"/>
<path fill-rule="evenodd" clip-rule="evenodd" d="M61.6717 70.2324C61.9095 69.7774 62.5855 69.7424 62.9651 70.0581C63.4648 70.4737 63.2148 71.0065 62.9867 71.4789C62.2859 72.9308 61.8613 74.4562 61.5775 76.0417C60.9871 79.338 61.1199 82.6767 60.9206 86.007C60.7214 89.3345 59.9142 92.5019 57.9465 95.2393C56.0913 97.8204 53.9316 100.177 52.061 102.756C50.4123 105.029 48.6685 107.423 48.367 110.289C48.0765 113.047 48.9303 115.78 49.2052 118.512C49.7744 124.168 48.6926 129.68 46.5572 134.895C45.5655 137.317 44.4294 139.701 42.837 141.8C41.9202 143.008 40.6836 144.643 39.1213 145.063C38.4008 145.256 37.4294 145.001 37.2667 144.166C37.1137 143.383 37.8915 142.622 38.3071 142.045C40.1065 139.547 41.4734 136.784 42.5789 133.926C43.6497 131.158 44.5342 128.312 44.8381 125.348C45.12 122.597 44.8855 119.908 44.415 117.182C43.9355 114.403 43.4015 111.595 43.9376 108.796C44.4819 105.952 46.1349 103.549 47.9105 101.313C49.7884 98.9488 51.8461 96.7562 53.9363 94.573C55.973 92.4457 57.3614 90.1926 58.0373 87.3169C59.3728 81.6355 58.9003 75.5332 61.6717 70.2324Z" fill="#FAFBFC"/>
<path fill-rule="evenodd" clip-rule="evenodd" d="M13.275 85.3766C16.0622 85.3766 18.5127 86.8465 20.2012 88.9323C22.1778 91.374 22.577 94.3558 23.3796 97.266C23.779 98.7142 24.4659 100.152 25.6697 101.136C26.7646 102.031 28.1545 102.21 29.465 102.647C32.0842 103.521 34.1991 105.625 35.0343 108.194C36.0533 111.326 34.974 114.485 35.1598 117.66C35.3304 120.576 38.2199 122.395 40.5447 123.792C42.837 125.171 44.9021 126.461 45.5925 129.145C46.3247 131.993 46.5703 135.172 45.5562 137.985C43.8679 142.668 38.9268 144.731 34.1524 145.051C29.8195 145.341 24.3714 144.885 21.1175 141.756C19.1703 139.884 18.4652 137.265 18.5527 134.659C18.607 133.039 18.9296 131.434 19.3467 129.868C19.6423 128.759 20.0417 127.654 20.1555 126.507C20.4579 123.456 17.6238 122.871 15.2114 122.033C12.1459 120.968 9.99979 118.958 8.50745 116.156C7.11768 113.548 6.53456 110.62 7.36769 107.749C7.79319 106.283 8.56496 104.952 9.61163 103.821C10.0724 103.323 10.7218 102.907 11.1376 102.384C11.5258 101.895 11.4413 101.262 11.3075 100.69C10.689 98.0463 8.76185 95.8572 8.07266 93.2184C7.45044 90.8364 7.81827 87.872 10.0072 86.3353C10.9528 85.6713 12.1191 85.3839 13.275 85.3766Z" fill="#93E7ED"/>
<path fill-rule="evenodd" clip-rule="evenodd" d="M17.0729 92.2644C20.0271 95.3951 20.8301 99.6428 21.0658 103.76C21.1978 106.069 21.0604 108.504 21.7422 110.743C22.3255 112.66 23.693 114.125 25.1026 115.509C27.9401 118.297 31.1046 121.13 31.9345 125.165C32.4215 127.532 32.0928 129.977 32.7657 132.319C33.3776 134.447 34.4548 136.538 35.7651 138.335C36.8201 139.782 38.1946 140.89 39.3479 142.239C39.6997 142.651 40.2037 143.257 40.0585 143.839C39.8886 144.519 39.0169 144.735 38.3984 144.628C36.9565 144.379 35.7427 143.009 34.7999 142.013C33.4212 140.557 32.2497 138.99 31.2975 137.233C30.2404 135.282 29.3892 133.212 29.0256 131.023C28.6482 128.752 28.836 126.385 27.9742 124.205C26.5241 120.538 23.0067 118.374 20.4637 115.516C17.2952 111.954 17.7677 107.521 18.0923 103.14C18.2706 100.733 18.4478 98.0137 17.2249 95.8154C16.7581 94.9763 15.7174 94.1939 15.5167 93.2401C15.3329 92.3662 16.3362 91.4832 17.0729 92.2644Z" fill="#FAFBFC"/>
<path fill-rule="evenodd" clip-rule="evenodd" d="M20.2231 143.713C20.2233 161.618 23.1603 171 38.6653 171C54.1703 171 57.1073 161.618 57.1074 143.713H20.2231Z" fill="#F4B2A7"/>
<path d="M101.086 117.839H85.0083C84.4859 117.839 84.0625 118.26 84.0625 118.78V121.132C84.0625 121.651 84.4859 122.073 85.0083 122.073H101.086C101.608 122.073 102.032 121.651 102.032 121.132V118.78C102.032 118.26 101.608 117.839 101.086 117.839Z" fill="#AFB9C5"/>
<path fill-rule="evenodd" clip-rule="evenodd" d="M88.7917 104.195C90.8218 97.6485 91.9593 90.7484 92.2043 83.4945H93.5204H94.3636C94.6086 90.7484 95.7462 97.6485 97.7763 104.195H100.85C104.898 104.195 108.18 107.459 108.18 111.487C108.18 115.514 104.898 118.779 100.85 118.779H85.2451C81.1971 118.779 77.9155 115.514 77.9155 111.487C77.9155 107.459 81.1971 104.195 85.2451 104.195H88.7917Z" fill="#D6D7DF"/>
<path fill-rule="evenodd" clip-rule="evenodd" d="M76.3181 50.8817C81.7369 50.3552 87.1557 50.0919 92.5744 50.0919C97.9932 50.0919 103.412 50.3552 108.831 50.8817L111.017 88.2616C104.869 88.8472 98.7218 89.1399 92.5744 89.1399C86.4271 89.1399 80.2797 88.8472 74.1323 88.2616L76.3181 50.8817Z" fill="#D6D7DF"/>
<path fill-rule="evenodd" clip-rule="evenodd" d="M73.1862 122.072H112.435H122.365V171H112.435V132.422H73.1862V171H63.2559V122.072H73.1862Z" fill="#D6D7DF"/>
<path fill-rule="evenodd" clip-rule="evenodd" d="M259.722 63.0187C263.061 70.9137 268.738 76.3991 271.745 84.6083C273.528 89.4766 274.271 94.7698 274.316 100.191C274.341 103.136 274.289 106.082 274.275 109.027C274.262 111.898 274.183 114.751 273.938 117.605C273.692 120.473 273.417 123.307 273.295 126.193C273.2 128.442 273.157 131.057 272.391 133.108C271.782 134.74 270.233 134.979 269.822 133C269.594 131.9 269.623 130.673 269.648 129.542C269.68 128.092 269.765 126.644 269.808 125.194C269.982 119.376 269.757 113.557 269.875 107.736C269.99 102.05 270.724 96.369 269.911 90.7201C269.24 86.0554 267.535 82.0496 265.575 78.2094C263.689 74.5148 261.636 70.9099 260.362 66.7073C259.996 65.5003 259.713 64.2496 259.578 62.9518C259.637 62.9243 259.685 62.9466 259.722 63.0187Z" fill="#EDD1CC"/>
<path fill-rule="evenodd" clip-rule="evenodd" d="M258.811 78.595C259.472 79.07 259.842 79.765 260.289 80.4507C260.845 81.3032 261.498 82.0729 262.054 82.926C263.212 84.7046 264.23 86.5924 265.287 88.4431C267.292 91.9559 268.815 95.6998 269.569 99.7637C270.35 103.975 270.561 108.322 270.889 112.597C271.237 117.127 271.587 121.691 271.633 126.238C271.654 128.276 271.764 130.439 271.518 132.462C271.365 133.722 270.794 134.795 269.506 134.785C266.77 134.763 265.486 131.748 264.949 129.276C264.159 125.635 264.001 121.768 264.126 118.044C264.278 113.555 265.061 109.132 265.4 104.66C265.759 99.9254 265.556 95.2745 263.92 90.8167C263.093 88.5639 262.134 86.3651 261.273 84.1273C260.906 83.1745 260.605 82.1958 260.11 81.3086C259.559 80.3217 258.874 79.4259 258.443 78.3629C258.566 78.4403 258.688 78.5176 258.811 78.595Z" fill="#FCDED9"/>
<path fill-rule="evenodd" clip-rule="evenodd" d="M290.328 69.1532C290.411 69.0883 290.495 69.0235 290.579 68.9585C290.338 69.9713 289.901 70.794 289.568 71.7199C289.268 72.5522 289.116 73.4941 288.914 74.4039C288.439 76.5408 287.891 78.6294 287.443 80.7844C286.557 85.0488 286.724 89.6429 287.306 94.374C287.855 98.8432 288.724 103.305 289.138 107.774C289.481 111.479 289.628 115.3 289.301 118.836C289.079 121.237 288.35 124.104 286.363 123.862C285.428 123.747 284.94 122.628 284.743 121.363C284.428 119.333 284.362 117.198 284.239 115.179C283.964 110.672 283.909 106.179 283.855 101.718C283.804 97.5095 283.662 93.2176 283.945 89.1152C284.217 85.1565 285.07 81.5894 286.289 78.2981C286.931 76.5641 287.543 74.7895 288.265 73.1369C288.611 72.3442 289.033 71.6437 289.38 70.8516C289.658 70.2145 289.879 69.5607 290.328 69.1532Z" fill="#FCDED9"/>
<path opacity="0.6" fill-rule="evenodd" clip-rule="evenodd" d="M259.657 91.6415C260.018 91.0372 260.815 93.0301 260.936 93.2807C260.885 93.156 260.833 93.0315 260.781 92.9072C261.499 94.0951 262.156 95.3318 262.565 96.694C262.969 98.0425 263.316 99.4182 263.695 100.776C264.407 103.324 265.325 105.8 265.97 108.371C266.598 110.876 266.756 113.339 266.604 115.931C266.446 118.624 266.35 121.359 266.534 124.05C266.622 125.336 267.042 126.534 267.33 127.771C267.618 129.01 267.845 130.266 268.185 131.489C268.264 131.33 268.274 131.863 268.273 131.903C268.271 132.209 268.228 132.465 268.13 132.755C267.876 133.501 267.4 134.134 266.677 134.339C265.37 134.711 264.157 133.528 263.736 132.279C263.131 130.487 262.798 128.507 262.51 126.624C262.246 124.897 262.183 123.16 262.262 121.409C262.416 117.956 263.044 114.549 263.214 111.097C263.399 107.34 262.651 103.809 262.024 100.151C261.722 98.3886 261.434 96.6427 260.847 94.9636C260.609 94.2836 260.299 93.6836 259.974 93.0557C259.789 92.6984 259.415 92.0612 259.657 91.6415Z" fill="#F4B2A7"/>
<path fill-rule="evenodd" clip-rule="evenodd" d="M270.258 85.7712C270.109 90.0761 269.85 94.3483 269.273 98.6079C268.684 102.955 268.008 107.287 267.442 111.637C266.89 115.872 266.312 120.178 266.389 124.472C266.446 127.635 265.919 132.986 269.45 134.547C273.026 136.128 273.793 129.376 274.028 127.148C274.478 122.873 274.332 118.552 274.114 114.254C273.89 109.842 273.515 105.452 273.051 101.056C272.536 96.1738 272.132 91.2691 271.808 86.3725C271.647 83.9506 271.607 81.5326 271.652 79.11C271.694 76.824 271.606 74.5143 270.789 72.3438C270.747 72.3747 270.704 72.4056 270.661 72.4363" fill="#F7DAD5"/>
<path opacity="0.6" fill-rule="evenodd" clip-rule="evenodd" d="M288.721 99.4098C288.077 100.342 287.429 101.265 286.822 102.252C285.735 104.019 284.752 105.983 284.457 108.509C283.838 113.796 284.334 119.505 284.454 124.953C284.479 126.066 284.337 127.146 284.778 128.205C285.178 129.166 285.926 129.898 286.638 129.894C288.164 129.886 287.931 126.169 287.934 124.533C287.938 121.665 287.615 118.769 287.643 115.904C287.671 113.066 287.844 110.22 288.258 107.524C288.677 104.796 289.29 102.176 290.099 99.7311C290.212 99.3918 291.017 96.7701 290.256 97.2219" fill="#F4B2A7"/>
<path fill-rule="evenodd" clip-rule="evenodd" d="M281.984 71.2156C280.98 71.2156 280.987 76.1905 280.956 76.8295C280.847 79.1355 280.873 81.4422 280.804 83.7486C280.653 88.782 280.468 93.8595 279.708 98.8347C279.299 101.513 278.824 104.179 278.314 106.837C277.803 109.503 277.116 112.166 276.779 114.865C276.456 117.46 276.638 120.106 276.683 122.714C276.727 125.338 276.807 127.966 277.152 130.567C277.238 131.209 277.337 131.849 277.444 132.487C277.534 133.018 277.482 133.678 277.632 134.183C277.874 134.992 278.91 135.257 279.608 135.131C281.495 134.788 282.701 132.43 283.346 130.707C284.169 128.507 284.606 126.121 285.037 123.802C285.526 121.176 285.812 118.509 285.946 115.835C286.219 110.401 285.869 104.96 285.478 99.5433C285.26 96.5306 285.009 93.5311 284.624 90.5371C284.241 87.5558 283.749 84.5878 283.429 81.5978C283.197 79.4249 282.968 77.2491 282.817 75.0678C282.781 74.5478 282.751 71.2156 281.984 71.2156Z" fill="#F7DAD5"/>
<path opacity="0.6" fill-rule="evenodd" clip-rule="evenodd" d="M280.727 107.378C280.564 102.155 278.453 79.2121 277.973 72.8959C277.853 71.315 276.697 64.7326 276.547 62.9404C276.141 63.447 276.175 71.332 276.18 73.1438C276.185 74.936 275.961 76.6985 275.846 78.4811C275.729 80.3 273.026 103.79 272.676 105.538C271.978 109.015 271.511 112.583 271.151 116.138C270.8 119.603 270.254 123.259 270.724 126.742C270.832 127.544 271.002 128.333 271.281 129.069C271.581 129.865 271.787 130.601 272.028 131.434C272.416 132.776 273.118 133.953 274.197 134.507C276.408 135.642 277.596 133.072 278.198 130.834C279.159 127.26 279.776 123.627 280.066 119.874C280.386 115.721 280.858 111.559 280.727 107.378Z" fill="#F4B2A7"/>
<path d="M290.957 122.748H258.064C257.646 122.748 257.308 123.085 257.308 123.5V156.225C257.308 156.64 257.646 156.977 258.064 156.977H290.957C291.374 156.977 291.713 156.64 291.713 156.225V123.5C291.713 123.085 291.374 122.748 290.957 122.748Z" fill="#F4B2A7"/>
<path d="M256.551 126.509H254.283C253.865 126.509 253.526 126.846 253.526 127.262V168.262C253.526 168.677 253.865 169.014 254.283 169.014H256.551C256.969 169.014 257.307 168.677 257.307 168.262V127.262C257.307 126.846 256.969 126.509 256.551 126.509Z" fill="#E0A49A"/>
<path d="M275.455 126.509H273.187C272.769 126.509 272.431 126.846 272.431 127.262V168.262C272.431 168.677 272.769 169.014 273.187 169.014H275.455C275.873 169.014 276.211 168.677 276.211 168.262V127.262C276.211 126.846 275.873 126.509 275.455 126.509Z" fill="#E0A49A"/>
<path d="M294.737 126.509H292.469C292.051 126.509 291.712 126.846 291.712 127.262V168.262C291.712 168.677 292.051 169.014 292.469 169.014H294.737C295.155 169.014 295.493 168.677 295.493 168.262V127.262C295.493 126.846 295.155 126.509 294.737 126.509Z" fill="#E0A49A"/>
</svg>
