<svg width="1093" height="384" viewBox="0 0 1093 384" fill="none" xmlns="http://www.w3.org/2000/svg">
<path opacity="0.12" fill-rule="evenodd" clip-rule="evenodd" d="M629.725 229.847C620.542 127.115 127.817 -71.1674 36.3447 26.1379C-55.1279 123.443 32.8116 306.06 224.504 352.823C416.197 399.587 638.908 332.579 629.725 229.847Z" fill="#93E7ED"/>
<path opacity="0.12" fill-rule="evenodd" clip-rule="evenodd" d="M476.205 216.11C484.985 123.094 956.083 -56.4371 1043.54 31.6661C1131 119.769 1108.86 305.084 925.582 347.425C742.303 389.766 467.425 309.127 476.205 216.11Z" fill="#F4B2A7"/>
<path d="M865 246C879.359 246 891 234.36 891 220C891 205.641 879.359 194 865 194C850.641 194 839 205.641 839 220C839 234.36 850.641 246 865 246Z" fill="#B8DBE9"/>
<path d="M865 200.868C865.813 200.868 866.472 200.21 866.472 199.397C866.472 198.584 865.813 197.925 865 197.925C864.187 197.925 863.528 198.584 863.528 199.397C863.528 200.21 864.187 200.868 865 200.868Z" fill="white"/>
<path d="M844.397 221.473C845.209 221.473 845.868 220.814 845.868 220.001C845.868 219.189 845.209 218.53 844.397 218.53C843.584 218.53 842.925 219.189 842.925 220.001C842.925 220.814 843.584 221.473 844.397 221.473Z" fill="white"/>
<path d="M885.604 221.473C886.416 221.473 887.075 220.814 887.075 220.001C887.075 219.189 886.416 218.53 885.604 218.53C884.791 218.53 884.132 219.189 884.132 220.001C884.132 220.814 884.791 221.473 885.604 221.473Z" fill="white"/>
<path d="M865 242.075C865.813 242.075 866.472 241.416 866.472 240.603C866.472 239.79 865.813 239.132 865 239.132C864.187 239.132 863.528 239.79 863.528 240.603C863.528 241.416 864.187 242.075 865 242.075Z" fill="white"/>
<path fill-rule="evenodd" clip-rule="evenodd" d="M865 202.342L865.981 219.512H864.019L865 202.342Z" fill="white"/>
<path fill-rule="evenodd" clip-rule="evenodd" d="M873.682 228.684L864.663 221.053L866.051 219.665L873.682 228.684Z" fill="white"/>
<path d="M865 221.964C866.084 221.964 866.962 221.085 866.962 220.001C866.962 218.918 866.084 218.039 865 218.039C863.916 218.039 863.038 218.918 863.038 220.001C863.038 221.085 863.916 221.964 865 221.964Z" fill="white"/>
<path d="M942.41 171.603L952.859 161.176C954.617 159.422 957.467 159.422 959.226 161.175C959.226 161.175 959.227 161.176 959.227 161.176L987.045 188.931C988.733 190.614 989.681 192.898 989.681 195.278V379.108" stroke="#D6D7DF" stroke-width="8"/>
<path d="M1004.31 378.547H974.486C973.554 378.547 972.798 379.301 972.798 380.23V380.792C972.798 381.721 973.554 382.475 974.486 382.475H1004.31C1005.24 382.475 1006 381.721 1006 380.792V380.23C1006 379.301 1005.24 378.547 1004.31 378.547Z" fill="#D6D7DF"/>
<path fill-rule="evenodd" clip-rule="evenodd" d="M948.695 165.48C955.948 172.712 955.948 184.438 948.695 191.67L937.553 202.781L911.29 176.591L922.432 165.48C929.684 158.247 941.443 158.247 948.695 165.48Z" fill="#D6D7DF"/>
<path d="M922.28 191.964C929.533 199.196 936.57 203.904 937.999 202.48C939.427 201.055 934.706 194.037 927.453 186.805C920.201 179.572 913.164 174.864 911.735 176.289C910.307 177.713 915.028 184.731 922.28 191.964Z" fill="#AFB9C5"/>
<path opacity="0.8" fill-rule="evenodd" clip-rule="evenodd" d="M79.0561 231.92C80.8744 231.699 82.8152 231.777 84.5062 232.493C88.102 234.015 89.1241 238.251 89.0748 241.694C89.0216 245.4 88.2324 249.448 91.0578 252.434C92.3566 253.807 93.9722 254.858 95.2476 256.256C96.6103 257.75 97.6795 259.459 98.4712 261.295C99.9248 264.666 100.638 268.631 99.309 272.168C98.1386 275.282 95.194 278.093 95.8303 281.634C96.494 285.328 100.228 288.152 102.563 290.903C105.206 294.017 107.639 297.996 108.038 302.08C108.422 305.993 106.713 309.95 104.092 312.908C98.8545 318.819 90.9817 321.717 83.0435 321.699C79.6731 321.691 75.8572 321.539 72.9486 319.733C72.0497 319.175 71.5755 318.548 71.0411 317.678C70.562 316.897 69.929 316.389 69.1964 315.837C67.5869 314.623 66.4245 312.988 65.6827 311.157C62.8022 304.047 65.1045 295.25 69.1366 288.936C70.092 287.44 70.8742 286 70.4101 284.217C69.9257 282.356 68.7353 280.677 67.6824 279.077C66.6419 277.496 65.4541 275.987 64.6408 274.278C63.7891 272.487 63.5493 270.611 63.6998 268.651C63.9826 264.969 65.5765 261.571 67.833 258.61C70.0066 255.758 72.5586 253.028 72.5643 249.291C72.5706 245.33 69.9152 241.807 71.0464 237.779C71.5148 236.112 72.4557 234.401 73.9719 233.401C75.426 232.442 77.3459 232.129 79.0561 231.92Z" fill="#A6D2E3"/>
<path fill-rule="evenodd" clip-rule="evenodd" d="M77.8682 238.27C77.9023 237.738 78.5351 237.419 79.0332 237.558C79.6889 237.74 79.6763 238.351 79.659 238.896C79.6059 240.569 79.8488 242.195 80.2521 243.818C81.0903 247.194 82.6395 250.303 83.8668 253.545C85.0931 256.785 85.6687 260.13 84.9493 263.557C84.2712 266.789 83.2058 269.938 82.5117 273.174C81.9 276.026 81.2491 279.034 82.1807 281.878C83.0771 284.617 85.059 286.847 86.4861 289.322C89.4404 294.445 90.751 300.128 90.9263 305.976C91.0076 308.692 90.9344 311.433 90.3026 314.097C89.939 315.63 89.4503 317.703 88.1323 318.762C87.5246 319.25 86.4852 319.419 85.9737 318.696C85.4934 318.018 85.9147 316.968 86.0672 316.245C86.7274 313.116 86.8603 309.918 86.7022 306.74C86.5492 303.662 86.1845 300.59 85.2132 297.65C84.3116 294.922 82.942 292.472 81.33 290.086C79.6874 287.654 77.9798 285.217 77.3011 282.336C76.6115 279.409 77.1717 276.431 77.9208 273.561C78.713 270.525 79.7507 267.575 80.8234 264.621C81.8688 261.743 82.2394 259.019 81.6623 256.007C80.5222 250.055 77.4706 244.468 77.8682 238.27Z" fill="#F1F2FB"/>
<path fill-rule="evenodd" clip-rule="evenodd" d="M127.068 239.146C129.318 239.827 131.553 240.927 133.157 242.65C136.568 246.316 135.521 251.856 133.638 255.902C131.612 260.258 128.54 264.635 130.272 269.632C131.067 271.93 132.405 274.01 133.16 276.325C133.967 278.799 134.315 281.375 134.271 283.957C134.188 288.698 132.924 293.758 129.49 297.251C126.467 300.326 121.523 302.123 120.393 306.64C119.213 311.353 122.097 316.63 123.377 321.095C124.826 326.149 125.57 332.117 123.875 337.153C122.25 341.98 118.149 345.774 113.506 347.913C104.23 352.186 93.4604 351.528 84.1592 347.389C80.2102 345.631 75.8149 343.472 73.3608 339.827C72.6024 338.7 72.3781 337.714 72.2128 336.407C72.0647 335.235 71.5915 334.306 71.025 333.273C69.7804 331.003 69.2839 328.465 69.3841 325.916C69.7743 316.012 77.1372 306.803 85.2132 301.428C87.1267 300.154 88.8072 298.858 89.2079 296.508C89.6264 294.056 89.1199 291.453 88.733 289.014C88.3507 286.604 87.7571 284.204 87.7095 281.76C87.6598 279.2 88.3726 276.858 89.588 274.618C91.8713 270.41 95.5417 267.219 99.758 264.887C103.819 262.642 108.259 260.738 110.246 256.321C112.353 251.64 111.106 246.095 114.568 241.92C116.001 240.191 118.011 238.655 120.32 238.26C122.533 237.88 124.951 238.505 127.068 239.146Z" fill="#A6D2E3"/>
<path fill-rule="evenodd" clip-rule="evenodd" d="M122.472 246.89C122.791 246.278 123.699 246.23 124.208 246.655C124.879 247.214 124.543 247.931 124.237 248.567C123.297 250.521 122.727 252.573 122.346 254.706C121.553 259.142 121.731 263.634 121.464 268.115C121.196 272.592 120.113 276.854 117.471 280.537C114.981 284.01 112.082 287.182 109.571 290.651C107.358 293.709 105.017 296.931 104.612 300.787C104.222 304.498 105.368 308.175 105.737 311.852C106.501 319.462 105.049 326.878 102.183 333.895C100.851 337.154 99.3265 340.361 97.1888 343.186C95.9581 344.812 94.2981 347.011 92.2009 347.576C91.2339 347.837 89.9298 347.493 89.7114 346.37C89.5061 345.316 90.5501 344.292 91.1081 343.516C93.5235 340.155 95.3584 336.437 96.8423 332.592C98.2798 328.867 99.4671 325.038 99.8751 321.049C100.253 317.347 99.9387 313.73 99.3071 310.062C98.6635 306.323 97.9466 302.545 98.6663 298.778C99.3969 294.952 101.616 291.718 103.999 288.71C106.52 285.529 109.282 282.578 112.088 279.641C114.822 276.778 116.686 273.747 117.593 269.877C119.386 262.233 118.752 254.022 122.472 246.89Z" fill="#FAFBFC"/>
<path fill-rule="evenodd" clip-rule="evenodd" d="M57.5049 267.261C61.2464 267.261 64.5359 269.239 66.8025 272.046C69.4558 275.331 69.9917 279.343 71.0691 283.259C71.6052 285.208 72.5273 287.142 74.1432 288.466C75.613 289.67 77.4788 289.911 79.238 290.499C82.7539 291.675 85.5928 294.507 86.714 297.962C88.0819 302.177 86.6331 306.428 86.8825 310.7C87.1115 314.623 90.9903 317.07 94.111 318.951C97.1882 320.805 99.9603 322.541 100.887 326.154C101.87 329.985 102.2 334.262 100.838 338.047C98.572 344.349 91.9392 347.124 85.5302 347.555C79.7139 347.945 72.4005 347.332 68.0324 343.122C65.4187 340.602 64.4721 337.079 64.5895 333.573C64.6625 331.393 65.0955 329.233 65.6554 327.127C66.0522 325.633 66.5883 324.147 66.7411 322.604C67.1471 318.499 63.3427 317.711 60.1043 316.584C55.9893 315.151 53.1084 312.446 51.1051 308.677C49.2395 305.167 48.4567 301.228 49.5751 297.364C50.1463 295.391 51.1823 293.601 52.5873 292.079C53.2058 291.408 54.0775 290.85 54.6358 290.146C55.1568 289.488 55.0434 288.636 54.8638 287.866C54.0335 284.309 51.4466 281.364 50.5214 277.813C49.6862 274.608 50.18 270.619 53.1183 268.551C54.3877 267.658 55.9532 267.271 57.5049 267.261Z" fill="#93E7ED"/>
<path fill-rule="evenodd" clip-rule="evenodd" d="M62.6035 276.521C66.5692 280.734 67.6471 286.449 67.9634 291.989C68.1406 295.095 67.9562 298.372 68.8714 301.385C69.6544 303.964 71.4902 305.935 73.3824 307.798C77.1914 311.549 81.4393 315.362 82.5534 320.79C83.2071 323.975 82.7658 327.265 83.6691 330.416C84.4904 333.279 85.9365 336.093 87.6954 338.511C89.1116 340.458 90.9567 341.949 92.5048 343.764C92.9771 344.318 93.6537 345.134 93.4588 345.916C93.2307 346.832 92.0605 347.122 91.2303 346.978C89.2947 346.643 87.6653 344.8 86.3997 343.46C84.549 341.5 82.9764 339.393 81.6982 337.029C80.2792 334.403 79.1366 331.617 78.6484 328.672C78.1418 325.616 78.394 322.432 77.2371 319.499C75.2905 314.565 70.5689 311.653 67.1552 307.807C62.9019 303.015 63.5362 297.05 63.9719 291.155C64.2112 287.916 64.4491 284.257 62.8076 281.3C62.181 280.17 60.7839 279.118 60.5145 277.834C60.2677 276.659 61.6146 275.47 62.6035 276.521Z" fill="#FAFBFC"/>
<path fill-rule="evenodd" clip-rule="evenodd" d="M66.832 345.756C66.8323 369.848 70.7748 382.471 91.5883 382.471C112.402 382.471 116.344 369.848 116.344 345.756H66.832Z" fill="#F4B2A7"/>
<path d="M175.38 310.94H153.798C153.097 310.94 152.528 311.507 152.528 312.206V315.371C152.528 316.07 153.097 316.637 153.798 316.637H175.38C176.081 316.637 176.65 316.07 176.65 315.371V312.206C176.65 311.507 176.081 310.94 175.38 310.94Z" fill="#AFB9C5"/>
<path fill-rule="evenodd" clip-rule="evenodd" d="M158.876 292.584C161.601 283.775 163.128 274.491 163.457 264.731H165.223H166.355C166.684 274.491 168.211 283.775 170.936 292.584H175.062C180.496 292.584 184.901 296.976 184.901 302.395C184.901 307.814 180.496 312.207 175.062 312.207H154.115C148.681 312.207 144.276 307.814 144.276 302.395C144.276 296.976 148.681 292.584 154.115 292.584H158.876Z" fill="#D6D7DF"/>
<path fill-rule="evenodd" clip-rule="evenodd" d="M142.132 220.839C149.406 220.131 156.68 219.777 163.954 219.777C171.228 219.777 178.503 220.131 185.777 220.839L188.711 271.135C180.459 271.923 172.207 272.317 163.954 272.317C155.702 272.317 147.45 271.923 139.198 271.135L142.132 220.839Z" fill="#D6D7DF"/>
<path fill-rule="evenodd" clip-rule="evenodd" d="M137.928 316.631H190.614H203.945V382.465H190.614V330.557H137.928V382.465H124.598V316.631H137.928Z" fill="#D6D7DF"/>
<path fill-rule="evenodd" clip-rule="evenodd" d="M901.209 248.101C905.474 258.208 912.726 265.231 916.566 275.742C918.843 281.974 919.793 288.751 919.85 295.692C919.882 299.462 919.816 303.234 919.798 307.004C919.781 310.681 919.681 314.334 919.368 317.986C919.053 321.659 918.701 325.287 918.546 328.982C918.425 331.861 918.37 335.21 917.391 337.836C916.613 339.924 914.635 340.23 914.11 337.697C913.819 336.289 913.856 334.717 913.888 333.27C913.929 331.414 914.037 329.56 914.092 327.703C914.314 320.254 914.027 312.804 914.177 305.352C914.324 298.071 915.262 290.799 914.224 283.566C913.367 277.594 911.188 272.466 908.685 267.549C906.276 262.819 903.655 258.204 902.027 252.823C901.56 251.278 901.198 249.676 901.025 248.015C901.101 247.98 901.162 248.008 901.209 248.101Z" fill="#EDD1CC"/>
<path fill-rule="evenodd" clip-rule="evenodd" d="M900.046 268.037C900.891 268.646 901.363 269.535 901.934 270.413C902.644 271.505 903.479 272.49 904.188 273.582C905.668 275.859 906.969 278.276 908.318 280.646C910.879 285.143 912.824 289.937 913.787 295.14C914.786 300.532 915.055 306.097 915.474 311.57C915.918 317.37 916.365 323.212 916.424 329.035C916.45 331.644 916.592 334.413 916.278 337.003C916.082 338.616 915.352 339.99 913.707 339.977C910.212 339.949 908.572 336.089 907.886 332.924C906.877 328.262 906.676 323.311 906.836 318.544C907.029 312.796 908.029 307.134 908.462 301.408C908.921 295.347 908.662 289.392 906.572 283.685C905.516 280.801 904.291 277.985 903.19 275.12C902.722 273.901 902.338 272.648 901.705 271.512C901.001 270.248 900.127 269.101 899.576 267.74C899.733 267.839 899.89 267.938 900.046 268.037Z" fill="#FCDED9"/>
<path fill-rule="evenodd" clip-rule="evenodd" d="M940.303 255.955C940.41 255.872 940.517 255.789 940.624 255.706C940.316 257.003 939.758 258.056 939.332 259.241C938.949 260.307 938.755 261.513 938.497 262.678C937.891 265.414 937.191 268.088 936.619 270.847C935.486 276.306 935.7 282.188 936.443 288.245C937.145 293.967 938.254 299.68 938.783 305.401C939.221 310.145 939.41 315.037 938.992 319.564C938.707 322.638 937.776 326.308 935.239 325.998C934.044 325.852 933.421 324.418 933.17 322.8C932.767 320.2 932.682 317.467 932.525 314.881C932.174 309.111 932.104 303.359 932.035 297.648C931.97 292.26 931.789 286.765 932.15 281.513C932.498 276.444 933.587 271.877 935.145 267.664C935.965 265.443 936.746 263.172 937.668 261.056C938.11 260.041 938.65 259.144 939.092 258.13C939.447 257.314 939.73 256.477 940.303 255.955Z" fill="#FCDED9"/>
<path opacity="0.6" fill-rule="evenodd" clip-rule="evenodd" d="M901.126 284.743C901.588 283.969 902.605 286.52 902.76 286.841C902.694 286.682 902.629 286.522 902.562 286.363C903.48 287.884 904.319 289.467 904.84 291.211C905.357 292.938 905.8 294.699 906.285 296.438C907.193 299.7 908.366 302.87 909.19 306.161C909.992 309.369 910.194 312.522 910 315.84C909.798 319.288 909.675 322.789 909.91 326.235C910.023 327.881 910.559 329.415 910.927 330.999C911.295 332.586 911.585 334.193 912.02 335.759C912.12 335.555 912.132 336.238 912.132 336.289C912.129 336.681 912.074 337.009 911.948 337.38C911.624 338.334 911.017 339.145 910.093 339.408C908.424 339.884 906.874 338.37 906.336 336.771C905.564 334.477 905.138 331.942 904.77 329.53C904.433 327.319 904.353 325.095 904.453 322.854C904.651 318.433 905.453 314.071 905.67 309.652C905.906 304.841 904.95 300.32 904.15 295.637C903.764 293.381 903.396 291.146 902.646 288.996C902.342 288.125 901.946 287.357 901.531 286.553C901.295 286.096 900.817 285.28 901.126 284.743Z" fill="#F4B2A7"/>
<path fill-rule="evenodd" clip-rule="evenodd" d="M914.669 277.237C914.477 282.749 914.147 288.218 913.41 293.672C912.658 299.237 911.794 304.783 911.071 310.354C910.367 315.776 909.628 321.288 909.727 326.786C909.799 330.835 909.126 337.686 913.636 339.684C918.204 341.708 919.183 333.065 919.483 330.212C920.058 324.738 919.872 319.207 919.593 313.703C919.307 308.054 918.829 302.435 918.236 296.807C917.578 290.556 917.062 284.276 916.647 278.007C916.442 274.906 916.392 271.81 916.448 268.709C916.502 265.782 916.39 262.825 915.347 260.046C915.292 260.086 915.238 260.125 915.183 260.165" fill="#F7DAD5"/>
<path opacity="0.6" fill-rule="evenodd" clip-rule="evenodd" d="M938.25 294.687C937.429 295.88 936.6 297.062 935.825 298.326C934.437 300.587 933.181 303.103 932.804 306.337C932.014 313.105 932.648 320.414 932.801 327.389C932.832 328.815 932.651 330.197 933.214 331.553C933.725 332.784 934.68 333.721 935.59 333.716C937.539 333.705 937.242 328.946 937.245 326.851C937.251 323.18 936.838 319.472 936.874 315.804C936.909 312.17 937.131 308.527 937.659 305.075C938.194 301.582 938.977 298.228 940.011 295.098C940.154 294.664 941.184 291.307 940.211 291.885" fill="#F4B2A7"/>
<path fill-rule="evenodd" clip-rule="evenodd" d="M929.644 258.591C928.363 258.591 928.371 264.961 928.332 265.779C928.193 268.731 928.226 271.684 928.138 274.637C927.945 281.081 927.708 287.582 926.738 293.952C926.215 297.381 925.609 300.795 924.958 304.198C924.304 307.611 923.427 311.019 922.997 314.475C922.584 317.798 922.817 321.186 922.874 324.524C922.93 327.883 923.032 331.249 923.473 334.579C923.582 335.4 923.71 336.219 923.847 337.036C923.96 337.717 923.894 338.561 924.087 339.208C924.395 340.244 925.718 340.583 926.61 340.421C929.021 339.982 930.561 336.963 931.384 334.758C932.436 331.941 932.994 328.886 933.545 325.918C934.169 322.555 934.534 319.141 934.706 315.718C935.055 308.76 934.607 301.795 934.107 294.859C933.829 291.002 933.508 287.162 933.017 283.328C932.527 279.512 931.9 275.712 931.491 271.884C931.194 269.102 930.901 266.316 930.709 263.523C930.663 262.857 930.624 258.591 929.644 258.591Z" fill="#F7DAD5"/>
<path opacity="0.6" fill-rule="evenodd" clip-rule="evenodd" d="M928.039 304.893C927.831 298.206 925.135 268.833 924.522 260.746C924.368 258.722 922.892 250.295 922.7 248C922.181 248.649 922.225 258.744 922.231 261.064C922.237 263.358 921.952 265.615 921.805 267.897C921.655 270.226 918.203 300.3 917.755 302.538C916.864 306.989 916.267 311.557 915.807 316.109C915.359 320.545 914.662 325.225 915.262 329.685C915.4 330.711 915.618 331.722 915.973 332.665C916.357 333.684 916.62 334.626 916.928 335.692C917.424 337.41 918.32 338.917 919.698 339.626C922.523 341.08 924.04 337.789 924.809 334.924C926.037 330.348 926.825 325.697 927.194 320.891C927.603 315.575 928.207 310.247 928.039 304.893Z" fill="#F4B2A7"/>
<path d="M941.106 324.574H899.092C898.558 324.574 898.126 325.005 898.126 325.537V367.435C898.126 367.966 898.558 368.398 899.092 368.398H941.106C941.639 368.398 942.071 367.966 942.071 367.435V325.537C942.071 325.005 941.639 324.574 941.106 324.574Z" fill="#F4B2A7"/>
<path d="M897.16 329.385H894.262C893.729 329.385 893.296 329.816 893.296 330.348V382.84C893.296 383.372 893.729 383.804 894.262 383.804H897.16C897.693 383.804 898.126 383.372 898.126 382.84V330.348C898.126 329.816 897.693 329.385 897.16 329.385Z" fill="#E0A49A"/>
<path d="M921.306 329.385H918.409C917.875 329.385 917.443 329.816 917.443 330.348V382.84C917.443 383.372 917.875 383.804 918.409 383.804H921.306C921.84 383.804 922.272 383.372 922.272 382.84V330.348C922.272 329.816 921.84 329.385 921.306 329.385Z" fill="#E0A49A"/>
<path d="M945.934 329.385H943.037C942.503 329.385 942.071 329.816 942.071 330.348V382.84C942.071 383.372 942.503 383.804 943.037 383.804H945.934C946.468 383.804 946.9 383.372 946.9 382.84V330.348C946.9 329.816 946.468 329.385 945.934 329.385Z" fill="#E0A49A"/>
</svg>
