<svg width="56" height="56" viewBox="0 0 56 56" fill="none" xmlns="http://www.w3.org/2000/svg">
<path d="M25.5071 56C13.0812 55.7798 4.60289 48.5099 1.09311 36.9366C-0.920603 30.2963 -0.0472909 23.8536 2.85263 17.7634C5.78141 11.6125 10.1501 6.70143 16.098 3.55559C18.5824 2.24177 21.2457 1.28234 23.8614 0.255732C24.8814 -0.144419 25.9646 -0.0460584 27.0378 0.35045C28.4008 0.845485 29.8411 1.07019 31.2838 1.0129C34.4636 0.901277 37.3044 1.96009 39.9373 3.64608C41.7118 4.78198 43.6275 5.70076 45.2166 7.13917C50.1542 11.6094 53.5875 17.0983 55.5164 23.6057C56.2483 26.0545 55.9917 28.5575 55.7637 31.0333C55.6322 32.46 55.0958 33.8702 54.8808 35.2385C54.7127 36.3023 53.8776 37.0746 53.9435 37.7842C54.043 38.8569 53.6212 39.5349 53.2056 40.2826C49.2979 47.3157 43.1758 51.3054 35.9627 53.7861C33.4081 54.6645 30.8177 55.4007 28.1562 55.8157C27.1285 55.976 26.0749 55.9642 25.5071 56ZM10.1433 21.5448C10.2538 21.4683 10.3994 21.425 10.4282 21.339C11.5147 18.1156 13.6874 15.7675 16.0546 13.5222C17.2302 12.4073 18.0097 10.9077 19.0394 9.28172C15.7545 10.3815 10.287 18.1238 10.1433 21.5448ZM45.6218 33.6064L39.1517 42.2605C43.2892 38.6036 45.2964 35.8743 45.6218 33.607V33.6064ZM9.2895 10.4194C11.617 8.35012 14.3088 6.75549 16.4256 4.41214C13.739 6.01362 11.196 7.80206 9.2895 10.4194ZM39.5493 32.604C38.6005 33.8452 37.2407 34.8217 37.0804 36.5864C38.1869 35.4524 39.1984 34.2559 39.5493 32.604ZM17.1852 21.3588C18.2035 19.7635 19.4599 18.3306 19.9978 16.4674C18.5103 17.7646 17.8977 19.604 17.1852 21.3588ZM47.0694 46.7935L47.3023 46.9934C48.3418 46.2165 49.2234 45.2335 49.8963 44.1011C49.397 44.4817 48.9979 44.9642 48.5604 45.4055C48.0817 45.888 47.568 46.332 47.0694 46.7935ZM8.04049 11.6357C7.48543 12.0616 7.09628 12.4449 6.87389 12.9897C6.81307 13.1387 6.72913 13.3089 6.89939 13.4148C7.0043 13.4433 7.1149 13.4395 7.21777 13.4039C7.23291 12.7172 8.29974 12.6381 8.04049 11.6357Z" fill="#93E7ED"/>
<path d="M18.1624 42V40.708C18.5478 40.4813 18.9784 40.2887 19.4544 40.13C19.9304 39.9487 20.4291 39.8127 20.9504 39.722V20.478C20.4291 20.3647 19.9191 20.2287 19.4204 20.07C18.9444 19.8887 18.5251 19.696 18.1624 19.492V18.2H22.1064C22.4918 18.2 22.9678 18.1887 23.5344 18.166C24.1011 18.1433 24.6904 18.1207 25.3024 18.098C25.9144 18.0527 26.5038 18.0187 27.0704 17.996C27.6598 17.9507 28.1584 17.928 28.5664 17.928C30.5384 17.928 32.2951 18.1887 33.8364 18.71C35.4004 19.2313 36.7151 19.9907 37.7804 20.988C38.8684 21.9853 39.6958 23.2207 40.2624 24.694C40.8518 26.1673 41.1464 27.8673 41.1464 29.794C41.1464 31.6753 40.8744 33.3867 40.3304 34.928C39.7864 36.4693 38.9704 37.784 37.8824 38.872C36.7944 39.96 35.4118 40.81 33.7344 41.422C32.0798 42.0113 30.1304 42.306 27.8864 42.306C27.5918 42.306 27.1951 42.2833 26.6964 42.238C26.1978 42.2153 25.6651 42.1813 25.0984 42.136C24.5318 42.1133 23.9651 42.0793 23.3984 42.034C22.8318 42.0113 22.3331 42 21.9024 42H18.1624ZM28.1244 20.138C27.7164 20.138 27.3084 20.1493 26.9004 20.172C26.4924 20.1947 26.1411 20.2287 25.8464 20.274V39.96C25.9371 39.9827 26.0958 40.0053 26.3224 40.028C26.5491 40.028 26.7758 40.0393 27.0024 40.062C27.2518 40.062 27.4898 40.0733 27.7164 40.096C27.9431 40.096 28.1131 40.096 28.2264 40.096C29.5411 40.096 30.6518 39.824 31.5584 39.28C32.4878 38.736 33.2471 37.9993 33.8364 37.07C34.4258 36.1407 34.8564 35.0527 35.1284 33.806C35.4004 32.5593 35.5364 31.2333 35.5364 29.828C35.5364 28.5813 35.3891 27.38 35.0944 26.224C34.8224 25.068 34.3918 24.0367 33.8024 23.13C33.2131 22.2233 32.4424 21.498 31.4904 20.954C30.5611 20.41 29.4391 20.138 28.1244 20.138Z" fill="white"/>
</svg>
