<svg width="32" height="32" viewBox="0 0 32 32" fill="none" xmlns="http://www.w3.org/2000/svg">
<path opacity="0.2" d="M14.5755 32C7.47499 31.8742 2.63022 27.72 0.624635 21.1066C-0.526059 17.3122 -0.0270234 13.6306 1.63007 10.1505C3.30366 6.63573 5.80003 3.82939 9.19887 2.03177C10.6185 1.28101 12.1404 0.732765 13.6351 0.146132C14.218 -0.0825254 14.8369 -0.0263191 15.4502 0.200257C16.229 0.483134 17.0521 0.611537 17.8765 0.5788C19.6935 0.515016 21.3168 1.12005 22.8213 2.08348C23.8353 2.73256 24.93 3.25758 25.838 4.07953C28.6595 6.63396 30.6214 9.77043 31.7236 13.489C32.1419 14.8883 31.9953 16.3185 31.865 17.7333C31.7899 18.5486 31.4833 19.3544 31.3605 20.1363C31.2644 20.7441 30.7872 21.1855 30.8249 21.591C30.8817 22.2039 30.6407 22.5914 30.4032 23.0186C28.1703 27.0376 24.6719 29.3174 20.5501 30.7349C19.0903 31.2368 17.6101 31.6575 16.0893 31.8947C15.502 31.9863 14.9 31.9795 14.5755 32ZM5.79619 12.3113C5.85929 12.2676 5.94249 12.2428 5.95898 12.1937C6.57981 10.3518 7.8214 9.00999 9.17404 7.72698C9.8458 7.08988 10.2913 6.23296 10.8797 5.30384C9.0026 5.93227 5.87827 10.3565 5.79619 12.3113ZM26.0696 19.2037L22.3724 24.1489C24.7367 22.0592 25.8837 20.4996 26.0696 19.204V19.2037ZM5.30829 5.95392C6.63827 4.7715 8.17645 3.86028 9.38608 2.52122C7.85086 3.43635 6.39772 4.45832 5.30829 5.95392ZM22.5996 18.6308C22.0574 19.3401 21.2804 19.8981 21.1888 20.9065C21.8211 20.2585 22.3991 19.5748 22.5996 18.6308ZM9.8201 12.205C10.402 11.2934 11.12 10.4746 11.4273 9.40993C10.5773 10.1512 10.2273 11.2023 9.8201 12.205ZM26.8968 26.7391L27.0299 26.8534C27.6239 26.4094 28.1276 25.8477 28.5122 25.2006C28.2269 25.4181 27.9988 25.6938 27.7488 25.946C27.4753 26.2217 27.1817 26.4754 26.8968 26.7391ZM4.59457 6.64897C4.27739 6.89237 4.05502 7.11137 3.92794 7.42271C3.89318 7.50781 3.84522 7.60507 3.94251 7.66561C4.00246 7.68187 4.06565 7.6797 4.12444 7.65936C4.13309 7.267 4.74271 7.22178 4.59457 6.64897Z" fill="#363DA0"/>
</svg>
