<svg width="60" height="60" viewBox="0 0 60 60" fill="none" xmlns="http://www.w3.org/2000/svg">
<path d="M27.3291 60C14.0156 59.7641 4.93166 51.9749 1.17119 39.5749C-0.98636 32.4604 -0.0506688 25.5574 3.05638 19.0322C6.19437 12.442 10.8751 7.1801 17.2479 3.80956C19.9098 2.4019 22.7632 1.37393 25.5658 0.273998C26.6587 -0.154735 27.8193 -0.0493483 28.9691 0.375482C30.4295 0.905877 31.9726 1.14663 33.5184 1.08525C36.9253 0.965654 39.969 2.10009 42.79 3.90652C44.6913 5.12355 46.7437 6.10795 48.4463 7.64912C53.7366 12.4387 57.4151 18.3196 59.4818 25.2918C60.266 27.9156 59.9911 30.5973 59.7468 33.2499C59.606 34.7786 59.0312 36.2895 58.8009 37.7555C58.6207 38.8953 57.726 39.7228 57.7966 40.4831C57.9032 41.6324 57.4513 42.3589 57.006 43.16C52.8192 50.6954 46.2598 54.9701 38.5315 57.6279C35.7944 58.5691 33.019 59.3578 30.1673 59.8025C29.0662 59.9742 27.9374 59.9616 27.3291 60ZM10.8679 23.0837C10.9862 23.0017 11.1422 22.9553 11.1731 22.8632C12.3372 19.4096 14.6651 16.8937 17.2013 14.4881C18.4609 13.2935 19.2961 11.6868 20.3994 9.9447C16.8799 11.123 11.0218 19.4184 10.8679 23.0837ZM48.8805 36.0069L41.9483 45.2791C46.3813 41.361 48.5319 38.4367 48.8805 36.0075V36.0069ZM9.95304 11.1636C12.4468 8.94656 15.3308 7.23802 17.5989 4.7273C14.7204 6.44317 11.9957 8.35935 9.95304 11.1636ZM42.3742 34.9328C41.3576 36.2628 39.9008 37.309 39.729 39.1997C40.9146 37.9847 41.9983 36.7027 42.3742 34.9328ZM18.4127 22.8844C19.5038 21.1751 20.8499 19.6399 21.4262 17.6436C19.8324 19.0335 19.1762 21.0043 18.4127 22.8844ZM50.4315 50.1359L50.681 50.3501C51.7948 49.5176 52.7393 48.4645 53.4603 47.2512C52.9254 47.659 52.4978 48.176 52.029 48.6487C51.5161 49.1657 50.9657 49.6414 50.4315 50.1359ZM8.61481 12.4668C8.0201 12.9232 7.60316 13.3338 7.36488 13.9176C7.29972 14.0771 7.20978 14.2595 7.3922 14.373C7.50461 14.4035 7.6231 14.3994 7.73333 14.3613C7.74954 13.6256 8.89258 13.5408 8.61481 12.4668Z" fill="#93E7ED"/>
<path d="M47.6725 18.5004V18.5005L47.6794 18.5004C48.2013 18.4932 48.7184 18.5849 49.1981 18.7689C49.6777 18.9528 50.1083 19.2245 50.4641 19.5649C50.8198 19.9052 51.0931 20.3066 51.2694 20.743C51.4456 21.1792 51.5219 21.6426 51.4946 22.1048L51.4937 22.1195V22.1343V46.9372V49.6401V57.1658V57.1838L51.495 57.2017C51.509 57.3962 51.4638 57.5928 51.3606 57.77C51.2581 57.946 51.1009 58.098 50.9019 58.2045C50.718 58.2939 50.5024 58.3236 50.2935 58.2852C50.0825 58.2464 49.9009 58.1424 49.7757 58.0007L49.7514 57.9732L49.7233 57.9495L46.2663 55.0346L45.9486 54.7668L45.6272 55.0301L41.4212 58.4749L41.4203 58.4756C41.1964 58.6599 40.8995 58.7666 40.5857 58.7666C40.2722 58.7666 39.9755 58.6601 39.7517 58.4761C39.7514 58.476 39.7512 58.4758 39.751 58.4756L35.6044 55.0322L35.285 54.767L34.9655 55.0322L30.8212 58.4738C30.8206 58.4742 30.82 58.4747 30.8194 58.4752C30.5909 58.6603 30.2946 58.7723 29.9788 58.7856C29.6672 58.7791 29.375 58.6678 29.1564 58.4813L29.1565 58.4813L29.1487 58.4749L24.9427 55.0301L24.6239 54.7689L24.3067 55.032L20.7921 57.9469L20.7861 57.9519L20.7802 57.9571C20.5982 58.1179 20.3635 58.2292 20.1043 58.2713C19.8466 58.3131 19.582 58.2836 19.3451 58.1884C19.1068 58.0852 18.9061 57.9296 18.7591 57.7404L18.365 58.0464L18.7591 57.7404C18.6173 57.5577 18.5297 57.3493 18.5 57.1344V22.1343C18.5 20.1679 20.5396 18.5004 22.8974 18.5004H24.914H27.2186H47.6725Z" fill="white" stroke="#363DA0"/>
<circle cx="35" cy="31.8719" r="8.5" fill="#363DA0"/>
<path d="M35.4971 28.3557C34.9922 28.3557 34.5786 28.506 34.2563 28.8068C33.9377 29.1076 33.7246 29.5624 33.6172 30.1711H36.0664V30.9982H33.5366L33.5259 31.2399V31.5353L33.5366 31.7448H35.728V32.5666H33.6279C33.8571 33.6838 34.5088 34.2424 35.583 34.2424C36.0951 34.2424 36.6196 34.1314 37.1567 33.9094V34.9997C36.6877 35.2181 36.1416 35.3273 35.5186 35.3273C34.6556 35.3273 33.9538 35.091 33.4131 34.6183C32.876 34.1457 32.5251 33.4618 32.3604 32.5666H31.5439V31.7448H32.2744L32.2637 31.5461V31.3474L32.2744 30.9982H31.5439V30.1711H32.3496C32.4857 29.2723 32.8276 28.5669 33.3755 28.0549C33.9233 27.5428 34.6305 27.2868 35.4971 27.2868C36.2132 27.2868 36.8542 27.4444 37.4199 27.7595L36.9688 28.7639C36.4173 28.4917 35.9268 28.3557 35.4971 28.3557Z" fill="white"/>
<line x1="27" y1="44.5776" x2="43" y2="44.5776" stroke="#3C3C3C" stroke-linecap="round"/>
<line x1="27" y1="49.4344" x2="43" y2="49.4344" stroke="#3C3C3C" stroke-linecap="round"/>
</svg>
