<svg width="60" height="60" viewBox="0 0 60 60" fill="none" xmlns="http://www.w3.org/2000/svg">
<path d="M27.3291 60C14.0156 59.7641 4.93166 51.9749 1.17119 39.5749C-0.98636 32.4604 -0.0506688 25.5574 3.05638 19.0322C6.19437 12.442 10.8751 7.1801 17.2479 3.80956C19.9098 2.4019 22.7632 1.37393 25.5658 0.273998C26.6587 -0.154735 27.8193 -0.0493483 28.9691 0.375482C30.4295 0.905877 31.9726 1.14663 33.5184 1.08525C36.9253 0.965654 39.969 2.10009 42.79 3.90652C44.6913 5.12355 46.7437 6.10795 48.4463 7.64912C53.7366 12.4387 57.4151 18.3196 59.4818 25.2918C60.266 27.9156 59.9911 30.5973 59.7468 33.2499C59.606 34.7786 59.0312 36.2895 58.8009 37.7555C58.6207 38.8953 57.726 39.7228 57.7966 40.4831C57.9032 41.6324 57.4513 42.3589 57.006 43.16C52.8192 50.6954 46.2598 54.9701 38.5315 57.6279C35.7944 58.5691 33.019 59.3578 30.1673 59.8025C29.0662 59.9742 27.9374 59.9616 27.3291 60ZM10.8679 23.0837C10.9862 23.0017 11.1422 22.9553 11.1731 22.8632C12.3372 19.4096 14.6651 16.8937 17.2013 14.4881C18.4609 13.2935 19.2961 11.6868 20.3994 9.9447C16.8799 11.123 11.0218 19.4184 10.8679 23.0837ZM48.8805 36.0069L41.9483 45.2791C46.3813 41.361 48.5319 38.4367 48.8805 36.0075V36.0069ZM9.95304 11.1636C12.4468 8.94656 15.3308 7.23802 17.5989 4.7273C14.7204 6.44317 11.9957 8.35935 9.95304 11.1636ZM42.3742 34.9328C41.3576 36.2628 39.9008 37.309 39.729 39.1997C40.9146 37.9847 41.9983 36.7027 42.3742 34.9328ZM18.4127 22.8844C19.5038 21.1751 20.8499 19.6399 21.4262 17.6436C19.8324 19.0335 19.1762 21.0043 18.4127 22.8844ZM50.4315 50.1359L50.681 50.3501C51.7948 49.5176 52.7393 48.4645 53.4603 47.2512C52.9254 47.659 52.4978 48.176 52.029 48.6487C51.5161 49.1657 50.9657 49.6414 50.4315 50.1359ZM8.61481 12.4668C8.0201 12.9232 7.60316 13.3338 7.36488 13.9176C7.29972 14.0771 7.20978 14.2595 7.3922 14.373C7.50461 14.4035 7.6231 14.3994 7.73333 14.3613C7.74954 13.6256 8.89258 13.5408 8.61481 12.4668Z" fill="#93E7ED"/>
<path d="M18.7991 38.7853H19.2965L19.2991 39.2827L19.3292 45.0788C19.3298 45.1773 19.3614 45.273 19.4197 45.3524C19.478 45.4317 19.5599 45.4905 19.6536 45.5204C19.7474 45.5503 19.8482 45.5497 19.9416 45.5188L20.0988 45.9934L19.9416 45.5188C20.0348 45.4879 20.1158 45.4285 20.1732 45.3488C20.1734 45.3486 20.1735 45.3484 20.1737 45.3482L24.7001 38.9952L24.8496 38.7853H25.1073H38.6293C40.2092 38.7853 41.5098 37.4847 41.5098 35.9044V29.6258V27.6937V22.381C41.5098 20.8007 40.2092 19.5 38.6293 19.5H30.4195H28.4878H17.3805C15.8006 19.5 14.5 20.8007 14.5 22.381V35.9044C14.5 37.4847 15.8006 38.7853 17.3805 38.7853H18.7991Z" fill="#F6FBFB" stroke="#363DA0"/>
<line x1="19.2217" y1="26.5491" x2="30.0266" y2="26.5491" stroke="#363DA0" stroke-linecap="round"/>
<line x1="19.2217" y1="31.2707" x2="41.8315" y2="31.2707" stroke="#363DA0" stroke-linecap="round"/>
<path d="M29.6685 44.6777V38.6479V36.7923V31.6901C29.6685 29.9073 31.2104 28.4431 33.0878 28.4431H41.3919H43.3459H54.5809C56.4583 28.4431 58.0002 29.9073 58.0002 31.6901V44.6777C58.0002 46.4605 56.4583 47.9246 54.5809 47.9246H53.146L53.1154 53.4911C53.1143 53.687 53.0479 53.8776 52.9257 54.0355C52.8035 54.1934 52.6318 54.3105 52.4352 54.3701C52.2386 54.4296 52.0272 54.4285 51.8313 54.3669C51.6354 54.3053 51.465 54.1864 51.3447 54.0272L46.7652 47.9246H33.0878C31.2104 47.9246 29.6685 46.4605 29.6685 44.6777Z" fill="#363DA0"/>
<circle cx="37.0193" cy="38.263" r="1.77073" fill="white"/>
<circle cx="44.1023" cy="38.263" r="1.77073" fill="white"/>
<circle cx="51.1848" cy="38.263" r="1.77073" fill="white"/>
</svg>
