<svg width="80" height="80" viewBox="0 0 80 80" fill="none" xmlns="http://www.w3.org/2000/svg">
  <path opacity="0.4" d="M36.4387 80C18.6875 79.6854 6.57555 69.2999 1.56159 52.7665C-1.31515 43.2805 -0.0675584 34.0765 4.07518 25.3763C8.25916 16.5893 14.5001 9.57347 22.9972 5.07942C26.5463 3.20253 30.351 1.83191 34.0877 0.365331C35.5449 -0.206314 37.0924 -0.0657977 38.6254 0.500642C40.5726 1.20784 42.6301 1.52884 44.6912 1.447C49.2337 1.28754 53.292 2.80013 57.0533 5.20869C59.5883 6.8314 62.3249 8.14394 64.5951 10.1988C71.6489 16.5849 76.5535 24.4261 79.3091 33.7224C80.3547 37.2208 79.9881 40.7964 79.6624 44.3332C79.4746 46.3715 78.7083 48.3859 78.4012 50.3407C78.161 51.8604 76.9681 52.9637 77.0621 53.9775C77.2043 55.5099 76.6017 56.4785 76.0079 57.5466C70.4256 67.5939 61.6797 73.2935 51.3753 76.8372C47.7259 78.0921 44.0253 79.1438 40.2231 79.7367C38.7549 79.9657 37.2499 79.9488 36.4387 80ZM14.4905 30.7782C14.6482 30.6689 14.8562 30.6071 14.8975 30.4843C16.4495 25.8795 19.5535 22.525 22.9351 19.3174C24.6145 17.7247 25.7282 15.5824 27.1992 13.2596C22.5065 14.8307 14.6957 25.8911 14.4905 30.7782ZM65.174 48.0092L55.9311 60.3722C61.8417 55.148 64.7092 51.249 65.174 48.01V48.0092ZM13.2707 14.8848C16.5957 11.9287 20.4411 9.6507 23.4652 6.30306C19.6272 8.59089 15.9943 11.1458 13.2707 14.8848ZM56.499 46.5771C55.1435 48.3503 53.2011 49.7453 52.972 52.2663C54.5527 50.6463 55.9977 48.937 56.499 46.5771ZM24.5502 30.5126C26.005 28.2335 27.7999 26.1865 28.5683 23.5248C26.4432 25.378 25.5682 28.0058 24.5502 30.5126ZM67.242 66.8478L67.5747 67.1334C69.0597 66.0235 70.3191 64.6193 71.2804 63.0016C70.5672 63.5453 69.997 64.2346 69.372 64.865C68.6882 65.5542 67.9543 66.1885 67.242 66.8478ZM11.4864 16.6224C10.6935 17.2309 10.1375 17.7784 9.81984 18.5568C9.73296 18.7695 9.61304 19.0127 9.85627 19.164C10.0061 19.2047 10.1641 19.1992 10.3111 19.1484C10.3327 18.1675 11.8568 18.0545 11.4864 16.6224Z" fill="#93E7ED"/>
</svg>